<svg version="1.0" xmlns="http://www.w3.org/2000/svg" width="1024.000000pt" height="572.000000pt" viewBox="0 0 1024.000000 572.000000" preserveAspectRatio="xMidYMid meet"><g transform="translate(0.000000,572.000000) scale(0.100000,-0.100000)" fill="black" stroke="none"><path d="M5101 4913 c-53 -107 -72 -155 -59 -151 7 3 23 8 36 12 l22 7 0 -125 0 -125 -53 -103 c-30 -57 -91 -175 -137 -263 -46 -88 -100 -191 -120 -230 -21 -38 -95 -180 -165 -315 -152 -290 -146 -280 -166 -280 -25 0 -29 11 -14 41 11 20 15 62 15 147 l0 120 88 45 c77 40 90 51 109 91 26 53 33 53 -104 -10 l-93 -43 0 139 0 138 48 17 c26 9 89 29 140 45 l92 28 0 -71 c0 -40 4 -67 9 -62 4 6 34 59 65 119 56 106 57 109 32 104 l-26 -5 0 118 c0 135 -9 124 108 135 72 7 73 7 92 45 11 21 20 41 20 45 0 8 -115 -2 -230 -21 -292 -47 -563 -154 -820 -322 -300 -197 -518 -416 -712 -713 l-83 -129 -133 0 c-132 -1 -133 -1 -130 -23 3 -22 7 -23 135 -26 l132 -3 54 -77 c349 -498 882 -861 1447 -986 124 -27 264 -46 348 -46 l52 0 0 -145 0 -145 25 0 25 0 0 143 0 144 115 6 c357 21 703 144 1070 383 255 165 451 354 647 624 l72 100 73 0 c40 0 73 -1 73 -3 0 -1 -4 -17 -9 -34 l-9 -32 89 45 c48 25 91 49 94 54 3 4 -36 29 -86 55 l-91 47 7 -41 7 -41 -76 0 c-74 0 -76 1 -91 30 -31 59 -123 196 -196 290 -298 385 -753 689 -1205 805 -126 33 -408 75 -420 63 -3 -3 4 -24 15 -46 20 -39 20 -39 93 -46 129 -13 119 -1 116 -135 l-3 -116 -27 3 -27 3 62 -120 62 -119 3 69 c2 48 7 69 16 69 16 0 155 -42 219 -66 l47 -18 0 -133 c0 -73 -2 -133 -5 -133 -3 0 -28 11 -54 25 -40 20 -149 65 -158 65 -2 0 9 -21 24 -47 23 -41 38 -54 107 -88 l81 -40 3 -124 c2 -89 7 -129 17 -144 23 -33 19 -46 -11 -38 -30 8 -18 -15 -478 863 l-166 318 0 126 0 125 23 -7 c12 -4 28 -9 35 -12 16 -6 4 24 -49 131 l-35 68 -23 -48z m-361 -628 l0 -114 -42 -12 c-24 -6 -82 -24 -130 -40 -48 -16 -92 -29 -98 -29 -6 0 -10 43 -10 120 l0 119 68 20 c37 11 90 26 117 35 98 29 95 32 95 -99z m953 75 l97 -31 0 -122 0 -123 -109 37 c-61 20 -124 39 -140 42 l-31 7 0 116 0 117 43 -6 c23 -4 86 -20 140 -37z m341 -143 c65 -33 120 -66 122 -72 3 -6 3 -68 2 -137 l-3 -126 -80 50 c-44 27 -110 65 -147 84 l-68 34 0 125 0 125 28 -11 c15 -6 80 -38 146 -72z m-1644 -46 l0 -120 -72 -37 c-40 -20 -107 -58 -148 -85 l-75 -48 -3 126 c-1 70 -1 132 2 139 5 13 263 144 284 144 9 0 12 -31 12 -119z m710 -121 l0 -150 -39 0 c-22 0 -47 -3 -56 -6 -14 -6 -45 -53 -45 -70 0 -4 32 -3 70 0 l70 7 0 -123 0 -124 -45 -13 c-53 -16 -117 -60 -142 -97 -9 -15 -25 -50 -34 -78 -13 -37 -23 -52 -38 -54 -20 -3 -21 1 -21 110 l-1 113 -39 -75 c-22 -42 -40 -89 -40 -106 0 -20 -6 -34 -16 -38 -26 -10 -64 -7 -64 5 0 7 41 91 92 188 159 304 236 453 290 559 29 56 54 102 55 102 2 0 3 -67 3 -150z m240 -205 c100 -192 200 -383 221 -422 22 -43 33 -75 28 -79 -6 -3 -26 -3 -45 0 -31 6 -34 10 -34 43 0 21 -13 60 -32 96 l-33 61 -3 -96 c-3 -94 -3 -96 -28 -101 -14 -2 -27 0 -28 7 -25 99 -76 168 -150 202 -28 13 -59 24 -68 24 -16 0 -18 13 -18 126 l0 126 76 -7 76 -8 -21 42 c-21 41 -22 41 -76 41 l-55 0 0 152 c0 83 2 149 4 147 2 -2 86 -161 186 -354z m-1320 118 l-1 -138 -46 -35 c-26 -19 -78 -64 -115 -99 l-68 -64 -23 28 c-12 15 -41 55 -64 89 l-42 61 71 68 c56 54 273 226 286 227 1 0 2 -62 2 -137z m2347 40 c124 -97 223 -185 223 -199 0 -12 -93 -146 -113 -162 -11 -10 -27 0 -79 46 -36 31 -88 75 -116 97 l-51 40 -1 138 c0 162 -13 158 137 40z m-1977 -172 l0 -139 -76 -52 c-42 -29 -102 -74 -133 -99 -31 -25 -64 -52 -74 -60 -16 -13 -17 -4 -17 147 l0 161 44 31 c63 43 240 150 249 150 4 0 7 -62 7 -139z m1562 91 c126 -73 198 -121 204 -135 2 -7 3 -81 2 -165 l-3 -152 -79 66 c-44 37 -110 87 -148 112 l-68 45 0 138 c0 77 2 139 4 139 3 0 42 -22 88 -48z m-2282 -254 c30 -45 56 -85 58 -90 2 -4 -20 -35 -50 -69 -29 -34 -65 -75 -79 -92 l-25 -30 -62 83 c-34 46 -62 87 -62 91 0 11 149 189 158 189 4 -1 32 -37 62 -82z m3011 45 c60 -64 119 -140 119 -153 0 -13 -111 -169 -120 -170 -4 0 -129 142 -154 175 -6 7 4 28 28 60 21 26 47 65 59 86 12 22 24 39 27 39 3 0 22 -17 41 -37z m-2666 -322 c-4 -11 -11 -9 -32 10 -40 37 -143 158 -143 169 0 4 39 44 88 86 l87 78 3 -164 c1 -90 0 -171 -3 -179z m2319 259 c46 -41 84 -78 83 -82 -4 -17 -163 -186 -172 -184 -6 2 -11 71 -13 175 -2 112 1 172 7 169 6 -1 48 -37 95 -78z m-1946 -177 l-3 -128 -144 -3 c-80 -1 -148 1 -153 6 -12 12 268 251 295 252 4 0 6 -57 5 -127z m1563 71 c97 -74 219 -183 219 -195 0 -6 -62 -8 -152 -7 l-153 3 -3 128 c-1 73 1 127 7 127 5 0 42 -25 82 -56z m-2069 -140 c27 -28 48 -54 48 -57 0 -4 -65 -7 -145 -7 -80 0 -145 3 -145 8 0 4 32 45 72 90 l71 84 26 -34 c14 -18 47 -56 73 -84z m2647 51 c27 -31 60 -69 71 -85 l21 -30 -150 0 c-83 0 -151 3 -151 6 0 8 144 164 151 164 4 0 30 -25 58 -55z m-3019 -109 c0 -8 -195 -8 -203 0 -3 3 17 39 45 80 l50 74 54 -74 c30 -41 54 -77 54 -80z m3390 82 c22 -35 40 -69 40 -75 0 -10 -27 -13 -101 -13 -55 0 -99 3 -97 8 8 19 104 142 110 142 4 0 26 -28 48 -62z m-2468 -180 c-11 -18 -50 -91 -87 -163 -138 -264 -267 -505 -274 -509 -4 -3 -13 -1 -21 4 -12 8 -10 18 13 65 19 38 27 71 27 106 0 48 2 51 22 46 14 -4 26 0 34 11 21 27 16 45 -19 67 l-32 20 -3 149 -3 148 28 -21 c16 -11 54 -41 86 -66 32 -25 63 -45 68 -45 4 0 15 13 23 29 15 28 15 29 -22 53 -20 14 -68 52 -106 84 l-69 59 174 5 c96 3 175 2 177 -2 2 -5 -5 -23 -16 -40z m-932 37 c0 -3 -15 -24 -32 -48 -18 -23 -40 -53 -48 -66 l-16 -23 -44 61 c-25 34 -46 66 -48 71 -2 6 34 10 92 10 53 0 96 -2 96 -5z m408 -13 c-7 -10 -35 -44 -63 -75 l-50 -56 -67 67 c-38 36 -68 70 -68 74 0 5 59 8 131 8 124 0 130 -1 117 -18z m832 -172 c0 -104 -4 -190 -8 -190 -15 0 -147 47 -180 64 -31 16 -31 16 -47 -15 -9 -17 -15 -32 -13 -34 9 -8 121 -54 181 -75 l67 -24 0 -108 c0 -59 -2 -108 -5 -108 -19 0 -167 45 -214 64 l-56 24 -3 89 -3 88 -54 -100 c-53 -97 -54 -100 -35 -114 18 -12 20 -25 20 -127 0 -86 -3 -114 -13 -114 -11 0 -156 66 -166 75 -3 4 103 211 296 578 l115 217 59 0 59 0 0 -190z m130 178 c0 -90 124 -218 211 -218 18 0 19 -8 19 -106 l0 -107 -77 7 c-42 3 -105 11 -140 17 l-63 11 0 204 0 204 25 0 c14 0 25 -6 25 -12z m568 -190 l-3 -203 -55 -12 c-30 -6 -94 -15 -142 -19 l-88 -7 0 107 c0 103 1 106 23 106 82 1 207 128 207 211 0 14 7 19 30 19 l30 0 -2 -202z m315 -35 c218 -416 287 -551 287 -557 0 -6 -164 -86 -176 -86 -2 0 -4 54 -4 120 0 108 2 120 20 130 18 10 17 15 -33 110 l-52 100 -3 -85 c-2 -68 -6 -86 -20 -93 -26 -14 -192 -69 -229 -77 l-33 -7 0 110 0 110 53 17 c90 30 197 76 197 87 0 8 -17 47 -25 56 -2 2 -20 -5 -42 -16 -21 -11 -71 -31 -110 -46 l-73 -26 0 195 0 195 59 0 59 0 125 -237z m350 186 c-32 -28 -79 -68 -105 -87 -52 -39 -55 -47 -33 -76 18 -24 32 -18 128 59 l67 55 0 -150 c0 -83 -3 -150 -7 -150 -5 -1 -21 -11 -37 -24 -25 -21 -27 -26 -16 -47 17 -33 16 -32 39 -19 20 10 21 8 21 -40 0 -36 8 -67 29 -108 29 -58 29 -58 9 -71 -11 -7 -21 -11 -22 -9 -2 2 -33 62 -71 133 -37 72 -87 166 -110 210 -23 44 -77 146 -119 228 l-77 147 181 0 181 0 -58 -51z m449 -6 c-91 -106 -79 -105 -156 -18 l-68 75 137 0 137 0 -50 -57z m388 51 c0 -6 -46 -72 -78 -112 l-18 -23 -47 70 -47 71 95 0 c52 0 95 -3 95 -6z m-610 -100 c36 -42 66 -81 68 -88 3 -12 -134 -136 -158 -144 -11 -4 -14 275 -4 302 9 22 23 12 94 -70z m-2708 29 c24 -26 62 -67 85 -91 l42 -44 -38 -52 c-21 -28 -47 -66 -57 -83 -10 -18 -21 -33 -24 -33 -6 0 -123 119 -154 157 -15 18 -16 25 -5 45 15 30 99 148 104 148 3 0 24 -21 47 -47z m398 -109 c0 -121 -3 -154 -12 -148 -34 20 -158 128 -156 136 7 20 143 168 155 168 10 0 13 -34 13 -156z m2724 70 l58 -86 -63 -66 c-35 -36 -69 -70 -74 -76 -37 -40 -39 -39 -99 49 l-58 85 83 90 c45 49 85 90 88 90 3 0 32 -39 65 -86z m-2724 -446 l0 -128 -102 72 c-85 58 -159 115 -222 170 -13 10 5 47 60 124 l45 63 109 -87 110 -87 0 -127z m2493 217 c32 -47 57 -87 57 -89 0 -16 -311 -246 -332 -246 -4 0 -8 56 -8 124 l0 124 63 45 c34 25 82 64 107 86 25 22 48 40 51 41 3 0 31 -38 62 -85z m-1580 -154 c43 -6 98 -11 123 -11 l44 0 0 -105 0 -105 -65 0 c-35 0 -98 5 -140 11 l-75 11 0 110 c0 99 2 109 18 104 9 -3 52 -10 95 -15z m502 -92 l0 -104 -65 -11 c-36 -7 -100 -12 -142 -13 l-78 -1 0 105 0 105 53 1 c28 0 88 6 132 13 44 8 85 13 90 11 6 -1 10 -44 10 -106z m-767 -144 l72 -19 0 -113 c0 -101 -2 -113 -17 -113 -19 0 -123 27 -210 54 l-53 17 0 119 0 119 68 -23 c37 -12 100 -31 140 -41z m1115 -176 c-10 -10 -227 -69 -253 -69 -19 0 -20 7 -20 113 l0 114 55 12 c31 7 93 25 138 40 l82 28 3 -115 c1 -64 -1 -119 -5 -123z m-804 121 c57 -5 107 -10 112 -10 5 0 9 -52 9 -115 0 -94 -3 -115 -15 -115 -24 0 -219 20 -242 26 -22 4 -23 8 -23 120 l0 116 28 -6 c15 -3 74 -10 131 -16z m459 -93 c3 -103 2 -107 -20 -116 -19 -8 -211 -31 -255 -31 -10 0 -13 30 -13 114 l0 114 78 8 c42 4 100 10 127 14 84 13 80 18 83 -103z" /></g></svg>